#!OML:ASF C:\Vicon Data\Big\jianyuan-12\jianyuan\Session 1\Capture.male.ASF
:FULLY-SPECIFIED
:DEGREES
98
root -8.499775 17.149104 -15.906917 5.899618 6.192652 2.173412
lowerback -8.477700 1.627004 -4.975234 
upperback 2.411910 2.829486 -1.724526 
thorax 7.157472 1.195071 1.384061 
lowerneck -4.061244 -6.913376 -5.403217 
upperneck 6.850570 -9.711470 9.248515 
head 3.420859 -4.651889 3.218091 
rclavicle 0.000000 0.000000 
rhumerus -22.289201 -17.891516 -86.903972 
rradius 44.869715 
rwrist 22.933638 
rhand -18.725872 -5.798759 
rfingers 0.000000 
rthumb 7.569714 -35.643304 
lclavicle 0.000000 0.000000 
lhumerus -44.233365 34.262487 66.489664 
lradius 27.683103 
lwrist -51.555151 
lhand -8.050989 4.225038 
lfingers 0.000000 
lthumb 17.859740 33.424929 
rfemur -5.748162 1.466780 21.700757 
rtibia 26.239021 
rfoot -29.838420 -3.619021 
rtoes -6.687385 
lfemur -31.271162 -3.328091 -19.742813 
ltibia 20.276538 
lfoot -14.372030 3.040253 
ltoes -22.530408 
99
root -8.489246 17.150696 -15.833487 5.937461 5.789768 1.974604
lowerback -8.535863 1.797151 -4.768613 
upperback 2.375172 3.035386 -1.700376 
thorax 7.148013 1.305683 1.324579 
lowerneck -3.929659 -6.918828 -5.415328 
upperneck 6.697686 -9.720268 9.351877 
head 3.359672 -4.659797 3.257545 
rclavicle 0.000000 0.000000 
rhumerus -22.177715 -17.951870 -86.919623 
rradius 44.950730 
rwrist 22.978336 
rhand -18.670823 -5.828934 
rfingers 0.000000 
rthumb 7.622862 -35.671562 
lclavicle 0.000000 0.000000 
lhumerus -44.350602 34.093015 66.469340 
lradius 27.703097 
lwrist -51.440582 
lhand -8.073456 4.195296 
lfingers 0.000000 
lthumb 17.838123 33.397179 
rfemur -5.403062 1.549777 21.851790 
rtibia 25.870816 
rfoot -29.645392 -3.470607 
rtoes -6.964981 
lfemur -31.080717 -3.561243 -19.267420 
ltibia 18.758355 
lfoot -14.341605 3.217482 
ltoes -22.471806 
100
root -8.479369 17.147370 -15.757215 5.917970 5.668994 1.863125
lowerback -8.540667 1.893816 -4.649963 
upperback 2.381853 3.153808 -1.731290 
thorax 7.159024 1.369222 1.242806 
lowerneck -3.822489 -6.934066 -5.199650 
upperneck 6.542578 -9.745283 9.331948 
head 3.286085 -4.674198 3.222423 
rclavicle 0.000000 0.000000 
rhumerus -21.984223 -18.199465 -87.007078 
rradius 44.949102 
rwrist 22.926018 
rhand -18.683439 -5.758531 
rfingers 0.000000 
rthumb 7.610699 -35.601619 
lclavicle 0.000000 0.000000 
lhumerus -44.358153 33.861554 66.403693 
lradius 27.683510 
lwrist -51.352659 
lhand -7.856460 4.048731 
lfingers 0.000000 
lthumb 18.046929 33.231443 
rfemur -4.923992 1.526674 21.971535 
rtibia 25.489511 
rfoot -29.494980 -3.440486 
rtoes -7.174125 
lfemur -30.869310 -3.737177 -19.024442 
ltibia 17.357500 
lfoot -14.119425 3.283070 
ltoes -22.645131 
101
root -8.470995 17.143468 -15.679394 5.862969 5.665426 1.840251
lowerback -8.499762 1.838857 -4.674209 
upperback 2.402019 3.078235 -1.675004 
thorax 7.156622 1.329993 1.303677 
lowerneck -3.931704 -6.884254 -5.221311 
upperneck 6.684394 -9.666024 9.150591 
head 3.332683 -4.635100 3.170076 
rclavicle 0.000000 0.000000 
rhumerus -21.839999 -17.961666 -87.050885 
rradius 44.966337 
rwrist 22.931920 
rhand -18.684468 -5.760481 
rfingers 0.000000 
rthumb 7.609702 -35.603617 
lclavicle 0.000000 0.000000 
lhumerus -44.614988 33.979137 66.301250 
lradius 27.722445 
lwrist -51.400199 
lhand -7.873327 4.168723 
lfingers 0.000000 
lthumb 18.030693 33.352943 
rfemur -4.388243 1.512114 22.034954 
rtibia 25.136617 
rfoot -29.496237 -3.637329 
rtoes -7.676415 
lfemur -30.596851 -3.967407 -18.919504 
ltibia 16.012730 
lfoot -13.835754 3.455900 
ltoes -23.575256 
102
root -8.460123 17.139559 -15.601079 5.898513 5.625001 1.765477
lowerback -8.578986 1.874896 -4.598059 
upperback 2.418188 3.123913 -1.673780 
thorax 7.220687 1.353937 1.272420 
lowerneck -4.040692 -6.913237 -5.050322 
upperneck 6.723572 -9.698351 8.964794 
head 3.347439 -4.649153 3.081018 
rclavicle 0.000000 0.000000 
rhumerus -21.615839 -18.133045 -87.119054 
rradius 44.925385 
rwrist 23.047397 
rhand -18.660309 -5.714121 
rfingers 0.000000 
rthumb 7.633010 -35.556352 
lclavicle 0.000000 0.000000 
lhumerus -44.673717 33.988078 66.201694 
lradius 27.678230 
lwrist -51.645652 
lhand -8.048811 4.239472 
lfingers 0.000000 
lthumb 17.861854 33.439206 
rfemur -3.995249 1.351297 22.109834 
rtibia 24.815310 
rfoot -29.428018 -3.717001 
rtoes -8.310628 
lfemur -30.448901 -4.366881 -18.657470 
ltibia 14.750201 
lfoot -13.686205 3.901850 
ltoes -23.325204 
103
root -8.450597 17.140929 -15.522557 5.914612 5.515414 1.658631
lowerback -8.673389 1.945403 -4.490379 
upperback 2.443560 3.213296 -1.671973 
thorax 7.302886 1.400161 1.231327 
lowerneck -3.975020 -6.971172 -4.911451 
upperneck 6.570720 -9.775094 8.954032 
head 3.289136 -4.689002 3.056217 
rclavicle 0.000000 0.000000 
rhumerus -21.471114 -18.212624 -87.148898 
rradius 44.934054 
rwrist 23.058504 
rhand -18.687258 -5.705241 
rfingers 0.000000 
rthumb 7.607022 -35.548464 
lclavicle 0.000000 0.000000 
lhumerus -44.706434 33.919439 66.187317 
lradius 27.705840 
lwrist -51.553060 
lhand -7.971866 4.278297 
lfingers 0.000000 
lthumb 17.935914 33.471210 
rfemur -3.578024 1.302530 22.221614 
rtibia 24.489725 
rfoot -29.388510 -3.719840 
rtoes -7.956715 
lfemur -30.292679 -4.676386 -18.349787 
ltibia 13.638247 
lfoot -13.626841 4.358768 
ltoes -22.875951 
104
root -8.439274 17.139654 -15.443398 5.910734 5.433200 1.561009
lowerback -8.728530 1.955625 -4.416593 
upperback 2.448456 3.219468 -1.617897 
thorax 7.340051 1.404659 1.250395 
lowerneck -4.018913 -6.945527 -5.005223 
upperneck 6.656843 -9.742374 8.984448 
head 3.325791 -4.671116 3.079109 
rclavicle 0.000000 0.000000 
rhumerus -21.310636 -18.149489 -87.176216 
rradius 44.840839 
rwrist 23.081120 
rhand -18.799600 -5.707326 
rfingers 0.000000 
rthumb 7.498546 -35.554387 
lclavicle 0.000000 0.000000 
lhumerus -44.871302 33.960343 66.121104 
lradius 27.701461 
lwrist -51.671994 
lhand -7.882318 4.247934 
lfingers 0.000000 
lthumb 18.022080 33.432982 
rfemur -3.160065 1.273322 22.316779 
rtibia 24.192746 
rfoot -29.286227 -3.726171 
rtoes -7.472133 
lfemur -30.120569 -4.881373 -18.173872 
ltibia 12.626697 
lfoot -13.569926 4.874490 
ltoes -23.389087 
105
root -8.426333 17.135319 -15.365821 5.996184 5.395439 1.454146
lowerback -8.848170 1.954781 -4.302753 
upperback 2.431600 3.210053 -1.578282 
thorax 7.394768 1.403505 1.232035 
lowerneck -4.019584 -6.903676 -5.213898 
upperneck 6.648626 -9.686826 9.158224 
head 3.338126 -4.642826 3.167257 
rclavicle 0.000000 0.000000 
rhumerus -21.174703 -18.146613 -87.238916 
rradius 44.817195 
rwrist 23.100400 
rhand -18.854169 -5.731891 
rfingers 0.000000 
rthumb 7.445872 -35.580840 
lclavicle 0.000000 0.000000 
lhumerus -44.986163 33.968903 66.041338 
lradius 27.675354 
lwrist -51.714003 
lhand -7.986130 4.267158 
lfingers 0.000000 
lthumb 17.922170 33.461386 
rfemur -2.858454 1.249405 22.433429 
rtibia 23.935067 
rfoot -29.221371 -3.821330 
rtoes -7.503449 
lfemur -30.072616 -5.143479 -17.932671 
ltibia 11.731537 
lfoot -13.470690 5.304419 
ltoes -23.828508 
106
root -8.412408 17.130836 -15.287233 6.026302 5.331158 1.390660
lowerback -8.948944 1.970378 -4.249871 
upperback 2.440677 3.229230 -1.539840 
thorax 7.462038 1.412828 1.250247 
lowerneck -3.953039 -6.923052 -5.126005 
upperneck 6.531855 -9.696883 9.011619 
head 3.281348 -4.654033 3.113118 
rclavicle 0.000000 0.000000 
rhumerus -21.067190 -18.114028 -87.235703 
rradius 44.771844 
rwrist 23.106341 
rhand -18.878808 -5.717328 
rfingers 0.000000 
rthumb 7.422091 -35.567174 
lclavicle 0.000000 0.000000 
lhumerus -45.049499 33.910925 66.049578 
lradius 27.664732 
lwrist -51.544796 
lhand -8.017786 4.228816 
lfingers 0.000000 
lthumb 17.891766 33.425829 
rfemur -2.504538 1.095755 22.466835 
rtibia 23.723104 
rfoot -29.166311 -3.749379 
rtoes -7.677650 
lfemur -29.981614 -5.529883 -17.674842 
ltibia 10.966786 
lfoot -13.681290 5.825534 
ltoes -23.058937 
107
root -8.398883 17.122584 -15.209010 6.033492 5.294714 1.369299
lowerback -8.971721 1.957424 -4.169558 
upperback 2.435585 3.205863 -1.575421 
thorax 7.477060 1.405585 1.165491 
lowerneck -4.091278 -6.900111 -4.968927 
upperneck 6.705215 -9.669669 8.832372 
head 3.337783 -4.636034 3.028741 
rclavicle 0.000000 0.000000 
rhumerus -20.982531 -18.065921 -87.329811 
rradius 44.746782 
rwrist 23.101658 
rhand -18.907712 -5.756903 
rfingers 0.000000 
rthumb 7.394226 -35.607716 
lclavicle 0.000000 0.000000 
lhumerus -45.159926 33.941333 65.899206 
lradius 27.645921 
lwrist -51.633295 
lhand -7.925343 4.175441 
lfingers 0.000000 
lthumb 17.980714 33.364269 
rfemur -2.120096 1.112843 22.481978 
rtibia 23.531667 
rfoot -29.181821 -3.788378 
rtoes -7.564250 
lfemur -29.885717 -5.541807 -17.718770 
ltibia 10.373892 
lfoot -13.794029 6.239212 
ltoes -23.699864 
108
root -8.382959 17.116410 -15.129666 6.105631 5.211723 1.245548
lowerback -9.074040 1.985168 -3.965755 
upperback 2.400670 3.225531 -1.601249 
thorax 7.509580 1.424968 1.031213 
lowerneck -4.061694 -6.868169 -5.018893 
upperneck 6.668003 -9.636018 8.981774 
head 3.329135 -4.617529 3.085004 
rclavicle 0.000000 0.000000 
rhumerus -20.916970 -18.259454 -87.449461 
rradius 44.674115 
rwrist 23.421813 
rhand -18.892387 -5.735539 
rfingers 0.000000 
rthumb 7.409050 -35.585795 
lclavicle 0.000000 0.000000 
lhumerus -45.239939 33.888243 65.765436 
lradius 27.618161 
lwrist -51.639965 
lhand -7.956552 4.275054 
lfingers 0.000000 
lthumb 17.950662 33.466657 
rfemur -1.849895 1.127159 22.590670 
rtibia 23.402952 
rfoot -29.188612 -3.789541 
rtoes -7.691574 
lfemur -29.844224 -5.439171 -17.671892 
ltibia 9.837314 
lfoot -13.751140 6.603495 
ltoes -24.385303 
